<svg xmlns="http://www.w3.org/2000/svg" version="1.1" xmlns:xlink="http://www.w3.org/1999/xlink" xmlns:svgjs="http://svgjs.dev/svgjs" width="1000" height="600" viewBox="0 0 1000 600"><g transform="matrix(1,0,0,1,-0.6060606060606233,2.206682111937539)"><svg viewBox="0 0 396 236" data-background-color="#331e6d" preserveAspectRatio="xMidYMid meet" height="595" width="1000" xmlns="http://www.w3.org/2000/svg" xmlns:xlink="http://www.w3.org/1999/xlink"><g id="tight-bounds" transform="matrix(1,0,0,1,0.2400000000000091,0.11634121274410347)"><svg viewBox="0 0 395.52 235.7673175745118" height="235.7673175745118" width="395.52"><g><svg viewBox="0 0 395.52 235.7673175745118" height="235.7673175745118" width="395.52"><g><svg viewBox="0 0 395.52 235.7673175745118" height="235.7673175745118" width="395.52"><g id="textblocktransform"><svg viewBox="0 0 395.52 235.7673175745118" height="235.7673175745118" width="395.52" id="textblock"><g><svg viewBox="0 0 395.52 235.7673175745118" height="235.7673175745118" width="395.52"><g transform="matrix(1,0,0,1,0,0)"><svg width="395.52" viewBox="0.25 -29 48.65 29" height="235.7673175745118" data-palette-color="#ffcf31"><path d="M39.7-1.2L39.7-1.2Q39.05 0 32.93 0 26.8 0 26.55-1.2L26.55-1.2 24.85-10.3 24.15-10.3 22.55-1.2Q22.4 0 13.8 0L13.8 0Q11.4 0 10.63-0.28 9.85-0.55 9.55-1.2L9.55-1.2Q0.25-24.05 0.25-25.25 0.25-26.45 3.88-27.73 7.5-29 10.85-29L10.85-29Q15.15-29 15.3-26.7L15.3-26.7 17-13 17.6-13 18.2-24.05Q18.25-25.3 20.75-26.25 23.25-27.2 25.8-27.2 28.35-27.2 29.63-26.58 30.9-25.95 30.95-25.05L30.95-25.05 31.5-13 32.05-13 33.7-25.85Q33.85-27.05 37.08-28.03 40.3-29 42.75-29 45.2-29 46.6-28.3L46.6-28.3Q48.9-27.2 48.9-25.7L48.9-25.7Q48.9-25.55 44.38-13.5 39.85-1.45 39.7-1.2Z" opacity="1" transform="matrix(1,0,0,1,0,0)" fill="#ffcf31" class="wordmark-text-0" data-fill-palette-color="primary" id="text-0"></path></svg></g></svg></g></svg></g></svg></g><g></g></svg></g><defs></defs></svg><rect width="395.52" height="235.7673175745118" fill="none" stroke="none" visibility="hidden"></rect></g></svg></g></svg>