<svg xmlns="http://www.w3.org/2000/svg" version="1.1" xmlns:xlink="http://www.w3.org/1999/xlink" xmlns:svgjs="http://svgjs.dev/svgjs" width="1500" height="223" viewBox="0 0 1500 223"><g transform="matrix(1,0,0,1,-0.9090909090909918,-0.8784277740028728)"><svg viewBox="0 0 396 59" data-background-color="#ffa458" preserveAspectRatio="xMidYMid meet" height="223" width="1500" xmlns="http://www.w3.org/2000/svg" xmlns:xlink="http://www.w3.org/1999/xlink"><g id="tight-bounds" transform="matrix(1,0,0,1,0.2400000000000091,0.2324091420007619)"><svg viewBox="0 0 395.52 58.53518171599849" height="58.53518171599849" width="395.52"><g><svg viewBox="0 0 395.52 58.53518171599849" height="58.53518171599849" width="395.52"><g><svg viewBox="0 0 395.52 58.53518171599849" height="58.53518171599849" width="395.52"><g id="textblocktransform"><svg viewBox="0 0 395.52 58.53518171599849" height="58.53518171599849" width="395.52" id="textblock"><g><svg viewBox="0 0 395.52 58.53518171599849" height="58.53518171599849" width="395.52"><g transform="matrix(1,0,0,1,0,0)"><svg width="395.52" viewBox="0.25 -39 266.88 39.5" height="58.53518171599849" data-palette-color="#ffffff"><path d="M39.7-1.2L39.7-1.2Q39.05 0 32.93 0 26.8 0 26.55-1.2L26.55-1.2 24.85-10.3 24.15-10.3 22.55-1.2Q22.4 0 13.8 0L13.8 0Q11.4 0 10.63-0.28 9.85-0.55 9.55-1.2L9.55-1.2Q0.25-24.05 0.25-25.25 0.25-26.45 3.88-27.73 7.5-29 10.85-29L10.85-29Q15.15-29 15.3-26.7L15.3-26.7 17-13 17.6-13 18.2-24.05Q18.25-25.3 20.75-26.25 23.25-27.2 25.8-27.2 28.35-27.2 29.63-26.58 30.9-25.95 30.95-25.05L30.95-25.05 31.5-13 32.05-13 33.7-25.85Q33.85-27.05 37.08-28.03 40.3-29 42.75-29 45.2-29 46.6-28.3L46.6-28.3Q48.9-27.2 48.9-25.7L48.9-25.7Q48.9-25.55 44.38-13.5 39.85-1.45 39.7-1.2ZM64.65-25.85L64.65-25.85 64.65-1.2Q64.65-0.65 61.77-0.33 58.9 0 55.87 0 52.85 0 51.97-0.28 51.1-0.55 51.1-1.2L51.1-1.2 51.1-24.95Q51.1-26.05 53.92-27.13 56.75-28.2 60.1-28.2L60.1-28.2Q64.65-28.2 64.65-25.85ZM57.85-39L57.85-39Q61.15-39 63.02-38.02 64.9-37.05 64.9-34.5L64.9-34.5Q64.9-30 57.9-30 50.9-30 50.9-34.5 50.9-39 57.85-39ZM82 0.45L82 0.45Q73.7 0.45 69.85-1.15L69.85-1.15Q67.9-2 67.9-2.8L67.9-2.8Q67.9-4.85 69.1-7.6 70.3-10.35 71.2-10.35L71.2-10.35Q71.7-10.35 74.57-9.25 77.45-8.15 79.42-8.15 81.4-8.15 82.02-8.4 82.65-8.65 82.65-9.38 82.65-10.1 81.65-10.53 80.65-10.95 79.15-11.1 77.65-11.25 75.92-11.7 74.2-12.15 72.7-12.85 71.2-13.55 70.2-15.18 69.2-16.8 69.2-18.68 69.2-20.55 69.3-21.48 69.4-22.4 70.12-24.08 70.85-25.75 72.17-26.8 73.5-27.85 76.27-28.7 79.05-29.55 82.5-29.55 85.95-29.55 88.27-29.33 90.6-29.1 91.92-28.75 93.25-28.4 94.1-27.95L94.1-27.95Q95.55-27.2 95.55-26.3L95.55-26.3Q95.55-24.35 94.15-21.8 92.75-19.25 91.92-19.25 91.1-19.25 88.35-20.13 85.6-21 84.3-21L84.3-21Q82.2-21 82.2-19.8L82.2-19.8Q82.2-19.05 83.62-18.68 85.05-18.3 87.05-17.9 89.05-17.5 91.07-16.78 93.1-16.05 94.52-14.15 95.95-12.25 95.95-9.35L95.95-9.35Q95.95 0.45 82 0.45ZM115.19-1.2L115.19-1.2 115.19-15.1Q115.19-18.85 114.89-20.55 114.59-22.25 113.44-22.25L113.44-22.25Q112.44-22.25 112.44-20.9L112.44-20.9 112.44-1.2Q112.44-0.65 109.54-0.33 106.64 0 103.59 0 100.54 0 99.74-0.28 98.94-0.55 98.94-1.2L98.94-1.2 98.94-35.85Q98.94-36.9 101.84-37.95 104.74-39 107.94-39L107.94-39Q111.29-39 112.19-37.75L112.19-37.75Q112.49-37.35 112.49-36.9L112.49-36.9 112.49-29.55 111.94-26.1 112.29-26.1Q112.99-27.15 114.49-27.95L114.49-27.95Q117.29-29.45 120.59-29.45L120.59-29.45Q125.34-29.45 127.02-26.43 128.69-23.4 128.69-16.6L128.69-16.6 128.69-1.2Q128.69-0.65 125.77-0.33 122.84 0 119.82 0 116.79 0 115.99-0.28 115.19-0.55 115.19-1.2ZM146.99-11.3L145.34-11.3Q145.34-8.05 148.44-8.05L148.44-8.05Q150.24-8.05 153.14-9.28 156.04-10.5 156.19-10.5L156.19-10.5Q157.14-10.5 158.69-7.65 160.24-4.8 160.24-3.45L160.24-3.45Q160.24-1.5 156.24-0.5 152.24 0.5 148.41 0.5 144.59 0.5 142.01-0.1 139.44-0.7 137.81-1.63 136.19-2.55 134.97-3.9 133.74-5.25 133.14-6.48 132.54-7.7 132.19-9.2L132.19-9.2Q131.69-11.4 131.69-13.75L131.69-13.75Q131.69-22.85 136.44-26.3L136.44-26.3Q138.79-28.05 141.69-28.75 144.59-29.45 148.54-29.45L148.54-29.45Q161.19-29.45 161.19-20.65L161.19-20.65Q161.19-11.3 146.99-11.3L146.99-11.3ZM145.24-18.6L145.24-18.6 145.24-15.3Q146.69-15.3 147.62-16.45 148.54-17.6 148.54-19.25L148.54-19.25Q148.54-22.25 146.99-22.25L146.99-22.25Q145.24-22.25 145.24-18.6ZM177.69-15.8L177.69-15.8 177.69-1.2Q177.69-0.65 174.86-0.33 172.04 0 169.01 0 165.99 0 165.09-0.28 164.19-0.55 164.19-1.2L164.19-1.2 164.19-25.85Q164.19-26.8 166.96-27.9 169.74-29 173.01-29 176.29-29 176.69-27.2L176.69-27.2 177.19-24.9 177.54-24.9Q178.24-26.8 180.89-28.13 183.54-29.45 186.19-29.45 188.84-29.45 189.91-28.6 190.99-27.75 190.99-26.43 190.99-25.1 190.79-23.05 190.59-21 189.81-18.6 189.04-16.2 187.79-16.2L187.79-16.2Q187.29-16.2 184.64-16.95 181.99-17.7 180.26-17.7 178.54-17.7 178.11-17.2 177.69-16.7 177.69-15.8ZM204.39-4.7Q204.39-1.75 203.04-0.65 201.69 0.45 199.06 0.45 196.44 0.45 195.09-0.65 193.74-1.75 193.74-4.7 193.74-7.65 195.11-8.63 196.49-9.6 199.09-9.6 201.69-9.6 203.04-8.63 204.39-7.65 204.39-4.7ZM217.63 0.45L217.63 0.45Q213.08 0.45 210.48-1.7L210.48-1.7Q209.43-2.6 208.66-4.35 207.88-6.1 207.88-8.45 207.88-10.8 209.01-12.55 210.13-14.3 211.73-15.25 213.33-16.2 215.48-16.8L215.48-16.8Q218.73-17.65 222.63-17.65L222.63-17.65 224.28-17.65Q224.28-19.7 222.88-20.55L222.88-20.55Q222.28-20.9 221.06-20.9 219.83-20.9 218.11-20.25 216.38-19.6 215.23-18.93 214.08-18.25 213.68-18.25L213.68-18.25Q212.78-18.25 211.23-20.63 209.68-23 209.68-24.95L209.68-24.95Q209.68-25.6 211.53-26.65 213.38-27.7 216.76-28.58 220.13-29.45 223.33-29.45 226.53-29.45 228.86-28.93 231.18-28.4 232.66-27.65 234.13-26.9 235.16-25.65 236.18-24.4 236.71-23.4 237.23-22.4 237.48-20.8L237.48-20.8Q237.83-18.95 237.83-16.25L237.83-16.25 237.83-1.2Q237.83-0.65 235.16-0.33 232.48 0 229.86 0 227.23 0 226.46-0.15 225.68-0.3 225.53-0.5 225.38-0.7 225.28-1.2L225.28-1.2 224.88-4.05 224.48-4.05Q223.23 0.45 217.63 0.45ZM224.33-7.85L224.33-7.85 224.33-13.7Q223.03-13.7 222.23-12.6 221.43-11.5 221.43-10.1L221.43-10.1Q221.43-6.8 222.93-6.8L222.93-6.8Q223.58-6.8 223.96-7.13 224.33-7.45 224.33-7.85ZM266.13-21.4L266.13-21.4Q266.13-20.7 264.06-17.68 261.98-14.65 257.83-9.35L257.83-9.35 265.88-9.35Q267.13-9.35 267.13-5.85L267.13-5.85Q267.13-3.55 266.48-1.78 265.83 0 264.88 0L264.88 0 243.33 0Q241.98 0 241.41-2.38 240.83-4.75 240.83-7.5L240.83-7.5Q240.83-8.1 243.16-11.13 245.48-14.15 250.13-19.65L250.13-19.65 242.48-19.65Q241.23-19.65 241.23-23.15L241.23-23.15Q241.23-25.45 241.86-27.23 242.48-29 243.48-29L243.48-29 263.73-29Q266.13-29 266.13-21.4Z" opacity="1" transform="matrix(1,0,0,1,0,0)" fill="#ffffff" class="wordmark-text-0" data-fill-palette-color="primary" id="text-0"></path></svg></g></svg></g></svg></g></svg></g><g></g></svg></g><defs></defs></svg><rect width="395.52" height="58.53518171599849" fill="none" stroke="none" visibility="hidden"></rect></g></svg></g></svg>